# File created by Blade
# Date/Time:  Wed Jan 21 14:28:11 2015
# Frame Rate: 120.000 fps
#------------------------------------------------------
:FULLY-SPECIFIED
:DEGREES
219
root 18.743383 35.471302 -21.753376 -174.580546 0.224042 -178.209028
Spine -11.500209 -1.524183 1.609593
Head 4.751575 1.895031 0.549104
LeftShoulder -26.643698 0.764136 10.622577
LeftArm -54.341864 4.854857 -83.757375
LeftForeArm 22.525128 -0.000000 -1.336021
LeftHand -6.765500 0.000000 -41.092462
LeftHandThumb1 -26.253704 0.000000 33.147579
RightShoulder -30.131624 -33.141167 3.585965
RightArm -16.197153 -15.052880 81.693927
RightForeArm -45.040419 -0.000000 7.152776
RightHand 1.390562 -0.000000 47.522907
RightHandThumb1 -24.326973 -0.000000 -32.862282
LeftUpLeg 3.819389 9.900031 3.005055
LeftLeg -5.889033 -0.000000 0.000000
LeftFoot -21.857416 28.272855 -13.256678
LeftToeBase 26.827871 -0.000000 -0.000000
RightUpLeg 1.051107 -11.079064 -0.558476
RightLeg -2.050990 -0.000000 0.000000
RightFoot -20.731581 -20.158674 17.169686
RightToeBase 25.354715 -0.000000 -0.000000
220
root 18.741046 35.472710 -21.762692 -174.674700 0.076804 -178.232245
Spine -11.343098 -1.635245 1.568335
Head 4.632748 1.913247 0.609248
LeftShoulder -26.601658 1.035627 10.706978
LeftArm -54.475621 5.030463 -83.825260
LeftForeArm 22.704997 0.000000 -1.346238
LeftHand -6.704415 0.000000 -41.281558
LeftHandThumb1 -26.253704 0.000000 33.147579
RightShoulder -30.226888 -33.519833 3.521782
RightArm -16.301720 -15.005679 81.703478
RightForeArm -44.928917 -0.000000 7.128786
RightHand 1.393687 -0.000000 47.447768
RightHandThumb1 -24.326973 -0.000000 -32.862282
LeftUpLeg 3.901621 9.802397 3.008696
LeftLeg -5.883301 -0.000000 0.000000
LeftFoot -21.835761 28.212380 -13.287438
LeftToeBase 26.749072 -0.000000 -0.000000
RightUpLeg 1.172764 -11.154979 -0.593990
RightLeg -2.036679 -0.000000 0.000000
RightFoot -20.781066 -20.226038 17.153797
RightToeBase 25.437960 -0.000000 -0.000000
221
root 18.739972 35.474311 -21.770947 -174.771030 -0.087772 -178.255074
Spine -11.180126 -1.740187 1.530350
Head 4.515037 1.904904 0.642951
LeftShoulder -26.515704 1.254224 10.767830
LeftArm -54.613713 5.228655 -83.923790
LeftForeArm 22.765021 0.000000 -1.394500
LeftHand -6.695118 0.000000 -41.456717
LeftHandThumb1 -26.253704 0.000000 33.147579
RightShoulder -30.316879 -33.892088 3.452160
RightArm -16.383657 -14.929736 81.752353
RightForeArm -44.862971 -0.000000 7.091508
RightHand 1.462858 -0.000000 47.414813
RightHandThumb1 -24.326973 -0.000000 -32.862282
LeftUpLeg 3.968745 9.741498 3.011850
LeftLeg -5.863993 -0.000000 0.000000
LeftFoot -21.804158 28.143619 -13.275929
LeftToeBase 26.792134 -0.000000 -0.000000
RightUpLeg 1.302402 -11.241358 -0.630445
RightLeg -2.024614 -0.000000 0.000000
RightFoot -20.819651 -20.256064 17.202166
RightToeBase 25.400831 -0.000000 -0.000000
222
root 18.739761 35.475171 -21.777927 -174.846451 -0.256066 -178.270402
Spine -11.033398 -1.852263 1.494997
Head 4.367269 1.894659 0.700369
LeftShoulder -26.450788 1.440413 10.807719
LeftArm -54.761735 5.429983 -83.983801
LeftForeArm 22.850663 0.000000 -1.398564
LeftHand -6.553447 -0.000000 -41.653954
LeftHandThumb1 -26.253704 0.000000 33.147579
RightShoulder -30.380144 -34.217431 3.376340
RightArm -16.509075 -14.923173 81.844304
RightForeArm -44.756815 -0.000000 7.093762
RightHand 1.427661 -0.000000 47.362354
RightHandThumb1 -24.326973 -0.000000 -32.862282
LeftUpLeg 4.006378 9.689022 3.021934
LeftLeg -5.828362 -0.000000 0.000000
LeftFoot -21.791273 28.040739 -13.272451
LeftToeBase 26.804773 -0.000000 -0.000000
RightUpLeg 1.399607 -11.318528 -0.649206
RightLeg -1.997972 -0.000000 0.000000
RightFoot -20.870972 -20.348050 17.218358
RightToeBase 25.425675 -0.000000 -0.000000
